<?xml version="1.0" standalone="no"?>
<!DOCTYPE svg PUBLIC "-//W3C//DTD SVG 20010904//EN"
 "http://www.w3.org/TR/2001/REC-SVG-20010904/DTD/svg10.dtd">
<svg version="1.0" xmlns="http://www.w3.org/2000/svg"
 width="700.000000pt" height="700.000000pt" viewBox="0 0 700.000000 700.000000"
 preserveAspectRatio="xMidYMid meet">
<metadata>
Created by potrace 1.14, written by Peter Selinger 2001-2017
</metadata>
<g transform="translate(0.000000,700.000000) scale(0.100000,-0.100000)"
fill="#000000" stroke="none">
<path d="M1835 6993 c-31 -3 -200 -30 -247 -38 -46 -9 -271 -75 -282 -84 -6
-4 -33 -16 -61 -26 -71 -26 -196 -89 -287 -146 -461 -286 -786 -740 -907
-1269 -50 -217 -49 -183 -47 -1965 1 -918 5 -1686 10 -1705 4 -19 14 -71 22
-115 140 -767 730 -1394 1489 -1584 96 -24 178 -39 265 -49 87 -10 3337 -9
3420 1 790 94 1444 627 1689 1377 34 104 39 120 56 210 44 221 44 184 41 1940
-2 1654 -2 1676 -23 1780 -49 244 -108 417 -205 600 -269 508 -725 870 -1278
1014 -254 66 -185 64 -1990 63 -899 0 -1648 -2 -1665 -4z"/>
</g>
</svg>
