<svg xmlns="http://www.w3.org/2000/svg" xmlns:xlink="http://www.w3.org/1999/xlink" width="54" height="60" viewBox="0 0 54 60">
    <defs>
        <path id="prefix__a" d="M0 0.061L54 0.061 54 59.772 0 59.772z"/>
    </defs>
    <g fill="none" fill-rule="evenodd">
        <path fill="#00AD64" d="M27.948 25.087h-.007c-.305-.252-.617-.372-.956-.372-.352 0-.675.129-.922.34-1.33 1.3-2.883 2.856-4.179 4.189-.18.235-.287.528-.287.846 0 .32.108.613.29.848 1.297 1.328 2.907 2.822 4.23 4.125h.004c.251.23.587.371.956.371.282 0 .545-.082.765-.224 1.438-1.362 3.059-3.025 4.434-4.45.12-.206.188-.445.188-.7 0-.33-.114-.633-.307-.873l-4.21-4.1z"/>
        <g transform="translate(0 .167)">
            <mask id="prefix__b" fill="#fff">
                <use xlink:href="#prefix__a"/>
            </mask>
            <path fill="#00AD64" d="M53.973 18.88c-.008-.162-.018-.326-.034-.526-.024-.234-.062-.483-.12-.758-.03-.139-.065-.279-.1-.411-.039-.152-.093-.347-.147-.507-.118-.365-.257-.717-.414-1.048-.298-.63-.67-1.224-1.11-1.77-.192-.236-.416-.484-.647-.712-.217-.218-.422-.404-.647-.589-.077-.062-.168-.13-.279-.21l-.05-.037c-.084-.058-.181-.123-.279-.185l-.424-.281L31.354 1.217l-.367-.186c-.16-.084-.32-.164-.478-.236C30.25.677 30 .579 29.75.499l-.054-.016c-.105-.032-.202-.062-.341-.1l-.051-.014c-.123-.032-.258-.068-.374-.093-.287-.067-.614-.123-.976-.167-.31-.032-.626-.048-.941-.048-.78 0-1.553.1-2.313.304-.333.091-.59.174-.826.266-.12.046-.239.095-.35.147l-.05.025c-.073.031-.157.069-.28.132l-.492.25-18.45 10.68-.355.231c-.125.082-.249.164-.343.234-.224.156-.435.326-.603.481-.09.08-.198.182-.283.267-.166.16-.294.295-.395.409-.236.26-.45.527-.628.778-.282.387-.537.818-.756 1.268-.245.501-.444 1.032-.593 1.585-.1.378-.162.67-.203.972-.016.12-.029.237-.038.353l-.002.022-.015.175-.039.68.01 21.328.016.323c.008.161.019.32.034.484l.004.04c.029.269.067.509.11.714.025.116.055.24.087.371l.024.095c.029.106.068.248.116.402.105.33.223.642.346.919.21.475.462.932.753 1.365.317.466.675.902 1.066 1.295.255.255.476.456.684.623.073.059.161.125.285.213l.094.067c.054.036.116.079.18.12l.46.305 18.572 10.73.083.046c.15.079.302.154.46.231l.056.027c.1.043.22.099.347.15.18.075.389.146.636.218.17.054.313.093.456.126.15.04.3.068.477.098l.468.08.192.024c.146.013.292.022.438.031l.63.027.292-.018c.163-.007.324-.016.492-.027l.082-.007c.125-.013.269-.027.415-.05.35-.052.656-.13.896-.192.364-.1.612-.178.843-.268.11-.041.236-.091.374-.156l.788-.39 18.5-10.707.232-.149c.154-.1.304-.2.464-.314.19-.136.38-.287.573-.46.12-.107.236-.216.33-.31.15-.147.276-.28.374-.393.235-.258.467-.547.681-.855.253-.363.483-.75.678-1.148.247-.503.447-1.03.591-1.565.089-.325.15-.601.198-.888.02-.131.035-.258.053-.43.01-.096.017-.193.02-.274l.027-.446v.026l.013-.154V19.555l-.027-.674zM39.893 30.7l3.624 3.635-3.031 3.036h-.005c-1.235-1.237-2.33-2.37-3.575-3.592-.24-.189-.544-.302-.874-.302-.338 0-.65.12-.892.316-1.338 1.315-2.907 2.878-4.216 4.222-.175.233-.28.524-.28.838 0 .366.142.7.374.949v.001l3.518 3.526-3.032 3.038H31.5l-3.486-3.5c-.305-.254-.617-.372-.956-.372-.368 0-.705.14-.956.371h-.01l-3.495 3.503h-.005l-3.033-3.038c1.247-1.249 2.334-2.307 3.568-3.569.187-.238.298-.536.298-.861 0-.264-.074-.51-.201-.72l-4.284-4.22h-.012c-.305-.25-.617-.369-.956-.369-.367 0-.701.138-.952.366l-3.499 3.51h-.006l-3.03-3.04c1.214-1.216 2.325-2.295 3.526-3.524v-.007c.232-.25.374-.583.374-.949 0-.29-.09-.558-.241-.782l-3.66-3.667 3.033-3.039h.005l3.515 3.545c.249.215.573.345.928.345.347 0 .664-.124.91-.33 1.314-1.308 2.876-2.85 4.173-4.174.19-.239.305-.541.305-.87 0-.366-.142-.699-.374-.95l-3.516-3.523 3.034-3.038h.004l3.491 3.502h.01c.252.23.587.37.955.37.355 0 .68-.13.927-.343l3.52-3.529h.005l3.032 3.039c-1.265 1.267-2.425 2.398-3.676 3.679-.153.224-.244.495-.244.787 0 .283.085.546.23.766 1.305 1.34 2.963 2.807 4.297 4.117h.026c.252.23.587.37.955.37.34 0 .651-.118.957-.37H37l3.48-3.486h.005l3.032 3.039c-1.234 1.235-2.359 2.34-3.582 3.584-.197.24-.315.548-.315.881 0 .31.101.596.273.829z" mask="url(#prefix__b)"/>
        </g>
    </g>
</svg>
