<?xml version="1.0" encoding="UTF-8"?><svg xmlns="http://www.w3.org/2000/svg" viewBox="0 0 81.59 81.59"><defs><style>.f{fill:#6eeb7f;}.f,.g{fill-rule:evenodd;}</style></defs><g id="a"/><g id="b"><g id="c"><g id="d"><path class="f" d="M58.09,0H23.5C10.52,0,0,10.52,0,23.5V58.09c0,12.98,10.52,23.5,23.49,23.5H58.09c12.98,0,23.5-10.52,23.5-23.5V23.5C81.59,10.52,71.07,0,58.09,0Z"/></g><g id="e"><path class="g" d="M59.33,17.94h0c-2.64,0-4.81,2.17-4.81,4.81,0,.59,.12,1.16,.31,1.69l-11.95,7.83c-1.17-1.27-2.84-2.07-4.69-2.07-3.52,0-6.39,2.88-6.39,6.4,0,1.63,.6,3.12,1.61,4.25l-9.06,11.28c-.59-.28-1.25-.44-1.94-.44-2.48,0-4.5,2.04-4.5,4.51s2.02,4.51,4.5,4.51,4.51-2.04,4.51-4.51c0-1.03-.36-1.99-.95-2.76l9.08-11.28c.93,.52,2,.82,3.14,.82,.36,0,.71-.03,1.05-.08l4.48,13.13c-1.23,.79-2.04,2.16-2.04,3.71,0,2.43,1.97,4.42,4.4,4.42s4.42-1.99,4.42-4.42-1.99-4.42-4.42-4.42c-.13,0-.25,0-.38,.02l-4.48-13.13c1.99-1.08,3.35-3.19,3.35-5.61,0-.91-.19-1.79-.54-2.58l11.95-7.83c.87,.84,2.05,1.36,3.35,1.36,2.64,0,4.81-2.16,4.81-4.81s-2.17-4.81-4.81-4.81Z"/></g></g></g></svg>